<svg width="542" height="542" viewBox="0 0 542 542" fill="none" xmlns="http://www.w3.org/2000/svg">
<circle cx="271" cy="271" r="270.5" stroke="#03BAFE" stroke-opacity="0.15"/>
<circle cx="271.429" cy="271.429" r="228.429" fill="#5ED3FF" fill-opacity="0.4"/>
<circle cx="270.546" cy="271.546" r="181.546" fill="#5ED3FF" fill-opacity="0.4"/>
<circle cx="270.681" cy="271.681" r="127.681" fill="#03BAFE" fill-opacity="0.2"/>
<circle cx="270.788" cy="270.788" r="84.288" fill="#FFA200" stroke="#C4C4C4"/>
<path d="M303.963 233.425C312.502 233.425 319.425 226.502 319.425 217.963C319.425 209.423 312.502 202.5 303.963 202.5C295.423 202.5 288.5 209.423 288.5 217.963C288.5 226.502 295.423 233.425 303.963 233.425Z" fill="white" fill-opacity="0.5" stroke="white"/>
<path d="M163.963 311.425C172.502 311.425 179.425 304.502 179.425 295.963C179.425 287.423 172.502 280.5 163.963 280.5C155.423 280.5 148.5 287.423 148.5 295.963C148.5 304.502 155.423 311.425 163.963 311.425Z" fill="#5BC9F1" stroke="white"/>
<path d="M343.963 422.425C352.502 422.425 359.425 415.502 359.425 406.963C359.425 398.423 352.502 391.5 343.963 391.5C335.423 391.5 328.5 398.423 328.5 406.963C328.5 415.502 335.423 422.425 343.963 422.425Z" fill="#6BCBEF" stroke="white"/>
<path d="M270.963 491.425C279.502 491.425 286.425 484.502 286.425 475.963C286.425 467.423 279.502 460.5 270.963 460.5C262.423 460.5 255.5 467.423 255.5 475.963C255.5 484.502 262.423 491.425 270.963 491.425Z" fill="#6BCBEF" fill-opacity="0.5" stroke="white"/>
</svg>
