<svg width="29" height="31" viewBox="0 0 29 31" fill="none" xmlns="http://www.w3.org/2000/svg">
<path d="M0 14.3541C0 6.42654 6.42653 0 14.3541 0C22.2816 0 28.7081 6.42654 28.7081 14.3541V15.8169C28.7081 23.7444 22.2816 30.171 14.3541 30.171C6.42653 30.171 0 23.7444 0 15.8169V14.3541Z" fill="#F3F3F3"/>
<g clip-path="url(#clip0)">
<path d="M17.5607 16.3584L17.9435 13.7648H15.5505V12.0817C15.5505 11.3722 15.8848 10.6805 16.9565 10.6805H18.0444V8.47234C18.0444 8.47234 17.0572 8.29712 16.1133 8.29712C14.1427 8.29712 12.8546 9.53934 12.8546 11.7881V13.7648H10.6641V16.3584H12.8546V22.6283H15.5505V16.3584H17.5607Z" fill="black"/>
</g>
<path d="M27.7081 14.3541V15.8169H29.7081V14.3541H27.7081ZM1 15.8169V14.3541H-1V15.8169H1ZM14.3541 29.171C6.97882 29.171 1 23.1921 1 15.8169H-1C-1 24.2967 5.87425 31.171 14.3541 31.171V29.171ZM27.7081 15.8169C27.7081 23.1921 21.7293 29.171 14.3541 29.171V31.171C22.8339 31.171 29.7081 24.2967 29.7081 15.8169H27.7081ZM14.3541 1C21.7293 1 27.7081 6.97882 27.7081 14.3541H29.7081C29.7081 5.87425 22.8339 -1 14.3541 -1V1ZM14.3541 -1C5.87425 -1 -1 5.87426 -1 14.3541H1C1 6.97882 6.97882 1 14.3541 1V-1Z" fill="#F9F9F9"/>
<defs>
<clipPath id="clip0">
<rect width="8.61244" height="14.3312" fill="white" transform="translate(10.0479 8.29712)"/>
</clipPath>
</defs>
</svg>
